<?xml version="1.0" encoding="utf-8"?>
<!-- Generator: Adobe Illustrator 26.3.1, SVG Export Plug-In . SVG Version: 6.00 Build 0)  -->
<svg version="1.1" id="Laag_30" xmlns="http://www.w3.org/2000/svg" xmlns:xlink="http://www.w3.org/1999/xlink" x="0px" y="0px"
	 viewBox="0 0 711.5 677" style="enable-background:new 0 0 711.5 677;" xml:space="preserve">
<style type="text/css">
	.st0{fill:#353428;}
	.st1{fill:none;stroke:#962827;stroke-width:15.3895;stroke-miterlimit:10;}
	.st2{fill:#FFFFFF;}
	.st3{fill:#294294;}
	.st4{fill:#3C559A;}
	.st5{fill:#233A7F;}
	.st6{fill:#E64143;}
	.st7{fill:#CE3C3C;}
	.st8{fill:url(#SVGID_1_);}
</style>
<path class="st0" d="M212.8,345.7v175.6c0,33.7,1.9,58.8,5.7,75.1c3.8,16.4,10.8,29.8,21.1,40.4c8.9,9.3,19.3,16.1,31,20.6
	c11.7,4.5,27.2,7.2,46.4,8.2V677H0v-11.4c19.2-1,34.6-3.7,46.4-8.2c11.7-4.5,22.1-11.3,31-20.6c10.6-10.6,17.7-24,21.3-40.2
	c3.6-16.2,5.5-41.3,5.5-75.4V155.7c0-34-1.8-59.2-5.5-75.4C95,64.2,87.9,50.8,77.4,40.2C68.4,30.6,58,23.6,46.1,19.3
	C34.2,15.1,18.8,12.4,0,11.4V0h239c40,0,66.3,0.2,78.9,0.5c51.2,2.3,91.4,9.3,120.5,20.8c32.7,13.2,58.1,33,76.1,59.3
	c18,26.3,27,56.8,27,91.5c0,51.6-19.5,92.9-58.5,124c-11.9,9.3-25,16.9-39.4,22.8c-14.4,6-33.6,11.6-57.8,16.9
	c19.8,8.3,34.5,16.9,44.1,25.8c7.6,6.9,14.5,15.6,20.8,26c6.3,10.4,15.7,28.8,28.3,55.3c29.4,60.5,51.7,104.7,66.7,132.7
	c15,27.9,27.7,48.2,37.9,60.8c8.3,10.2,16.3,17.4,24.1,21.3c7.8,4,18.4,6.6,32,7.9V677H475.1c-8.3-18.2-13.6-29.8-15.9-34.7
	l-34.7-78.9c-20.8-47.3-41.8-89.1-63-125.5c-21.2-36-40.5-60.7-58-73.9c-8.9-6.6-18.5-11.3-28.8-14.1c-10.2-2.8-22.8-4.2-37.7-4.2
	H212.8z M212.8,334.8h18.8c41,0,70.3-2.3,88-6.9c17.7-4.6,34.3-14.2,49.8-28.8c34.7-33.1,52.1-74.1,52.1-123
	c0-26.1-5-50.7-15.1-73.6c-10.1-23-24.1-41.9-41.9-56.8c-13.9-11.2-30.4-19.1-49.6-23.6c-19.2-4.5-46.5-6.7-81.8-6.7h-20.3V334.8z"
	/>
<path class="st1" d="M702.9,392.6"/>
<path class="st2" d="M687.9,455.6c0,0-295.2-289.5-627.9-321.6l-18.6,83c0,0,425.1,219.8,524.4,393.6"/>
<g>
	<g>
		<polygon class="st3" points="647.4,415.9 519.9,543.3 573.7,597.4 711.5,459.6 657.2,405.5 		"/>
		<polygon class="st4" points="573.6,596.7 561,597.4 520.5,555.8 520.5,555.8 519.9,543.3 522.2,545.6 		"/>
		<polygon class="st5" points="588.8,594.5 711.3,472 711.3,459.6 573.6,597.4 		"/>
		<polygon class="st6" points="612.8,450.4 668.4,502.5 686.4,496.9 711.3,472 711.3,459.6 657.2,405.5 651.2,411.9 		"/>
		<polygon class="st7" points="668.4,502.5 711.3,459.6 711.3,472 668.4,514.9 		"/>
		<linearGradient id="SVGID_1_" gradientUnits="userSpaceOnUse" x1="560.9633" y1="591.6939" x2="588.8229" y2="591.6939">
			<stop  offset="0" style="stop-color:#3C559A"/>
			<stop  offset="1" style="stop-color:#233A7F"/>
		</linearGradient>
		<path class="st8" d="M588.8,582.1c-13.3,13.3-27.9,2.6-27.9,2.6v12.7c0,0,14.5,10.4,27.9-2.9V582.1z"/>
	</g>
	<path class="st1" d="M462.9,590.7"/>
</g>
</svg>
